<svg  xmlns="http://www.w3.org/2000/svg" width="24" height="24"  
fill="currentColor" viewBox="0 0 24 24" >
<!--Boxicons v3.0 https://boxicons.com | License  https://docs.boxicons.com/free-->
<path d="m18.71,5.29c-.39-.39-1.02-.39-1.41,0l-11,11c-.19.19-.29.44-.29.71v3c0,.55.45,1,1,1h3c.27,0,.52-.11.71-.29l11-11c.39-.39.39-1.02,0-1.41l-3-3Zm-9.12,13.71h-1.59v-1.59l7.5-7.5,1.59,1.59-7.5,7.5Zm8.91-8.91l-1.59-1.59,1.09-1.09,1.59,1.59-1.09,1.09Z"></path><path d="m7.77,10.15c1.73-1.43,3.23-2.66,3.23-4.15C11,2.19,3.5,2,2,2v2c3.31,0,7,.83,7,2,0,.54-1.51,1.78-2.5,2.6-2.06,1.7-4.4,3.63-4.24,6.07.09,1.4,1,2.67,2.74,3.86v-1.53c0-.3.07-.59.2-.85-.59-.56-.91-1.1-.94-1.61-.09-1.41,1.83-3,3.52-4.39Z"></path>
</svg>